/* XPM */
 2static char * wall_xpm[] = {
 3"10 10 6 1",
 4" 	c None",
 5"o	c #FFFFFF",
 6"+	c #000000",
 7"@	c #D40000",
 8"#	c #6A0000",
 9"$	c #9F0000",
"oooooooooo"
"oooooooooo",
"oo++++++oo",
"oo++++++oo",
"oooooo++oo",
"oooooo++oo",
"oooooo++oo",
"oooooo++oo",
"oooooo++oo",
"oooooo++oo",
"oooooooooo",
"oooooooooo"};