/* XPM */
static char *ce3b20a1734e4a2a96e441fc4479cd11eumgKoiT06kvxd6z[] = {
/* columns rows colors chars-per-pixel */
"576 24 8 1 ",
"  c None",
". c #213038",
"X c #437DA0",
"o c #9A2890",
"O c #4D92BC",
"+ c #D8B78F",
"@ c #FFD7A8",
"# c white",
/* pixels */
"                                                                                                                                                                                                                                                                                                                                                                                                                                                                                                                                                                                                ",
"                                                                                                                                                                                                                                                                                                                                                                                                                                                                                                                                                                                                ",
"                                                                                                                                                                                                                                                                                                                                                                                                                                                                                                                                                                                                ",
"                                                                                                                                                                                                                                                                                                         ........                                        ........                                                                                                                                                                                                                               ",
"      ...........             ...........                                     ...........             ...........                                     ...........             ...........                                     ...........             ...........              .........              ...XXXOOOOO.            ...........             ...XX.OOOOO.             #########               .........                                                                                                                                                                                ",
"     ..XXX.OOOOOO.           ..XXX.OOOOOO.            ...........            ..XXX.OOOOOO.           ..XXX.OOOOOO.            ...........            ..XXX.OOOOOO.           ..XXX.OOOOOO.            ...........            ..XXX.OOOOOO.           ..XXX.OOOOOO.          ...XXXOOOOOO.            ..XXX.XOOOOOO.          ..XXX.OOOOOO.           ..X...XOOOOOO.         #############           ...XX.OOOOOO.                                                                                                                                                                               ",
"    .o.X#.#XOOOOOO.         .o.X#.#XOOOOOO.          ..XXX.OOOOOO.          .o.X#.#XOOOOOO.         .o.X#.#XOOOOOO.          ..XXX.OOOOOO.          .o.X#.#XOOOOOO.         .o.X#.#XOOOOOO.          ..XXX.OOOOOO.          .o.X#.#XOOOOOO.         .o.X#.#XOOOOOO.        ..XXX.XOOOOOO.           .o.X#.XXO.OOO..         .o.X#.#XOOOOOO.         .o..###.O.OOO..        ##############          ..X...XOOOOOO.                                        .............                                   .............           .............                                   .............  ",
"    .o.X#.#XO.OOO..         .o.X#.#XO.OOO..         .o.X#.#XOOOOOO.         .o.X#.#XO.OOO..         .o.X#.#XO.OOO..         .o.X#.#XOOOOOO.         .o.X#.#XO.OOO..         .o.X#.#XO.OOO..         .o.X#.#XOOOOOO.         .o.X#.#XO.OOO..         .o.X#.#XO.OOO..       .o.X#.XXO.OOO..           .o.X#.#XOOOOOO.         .o.X#.#XO.OOO..         .o..###.OOOOOO.       ###############         .o..###.O.OOO..                .............          ..o.XXX.OOOOOO.          .............          ..o.XXX.OOOOOO.         ..o.XXX.OOOOOO.          .............          ..o.XXX.OOOOOO. ",
"    ...X#.#XOOOOOO.         ...X#.#XOOOOOO.         .o.X#.#XO.OOO..         ...X#.#XOOOOOO.         ...X#.#XOOOOOO.         .o.X#.#XO.OOO..         ...X#.#XOOOOOO.         ...X#.#XOOOOOO.         .o.X#.#XO.OOO..         ...X#.#XOOOOOO.         ...X#.#XOOOOOO.       .o.X#.#XOOOOOO.           ...X#.#XOOOOOO.         ...X#.#XOOOOOO.         ....###.OOOOOO.       ###############         .o..###.OOOOOO.               ..o.XXX.OOOOOO.         .o..X#.#XOOOOOO.        ..o.XXX.OOOOOO.         .o..X#.#XOOOOOO.        .o..X#.#XOOOOOO.        ..o.XXX.OOOOOO.         .o..X#.#XOOOOOO.",
"     .o.XXXXOOOOOO.          .o.XXXXOOOOOO.         ...X#.#XOOOOOO.          .o.XXXXOOOOOO.          .o.XXXXOOOOOO.         ...X#.#XOOOOOO.          .o.XXXXOOOOOO.          .o.XXXXOOOOOO.         ...X#.#XOOOOOO.          .o.XXXXOOOOOO.          .o.XXXXOOOOOO.       ...X#.#XOOOOOO.            .o.XXXOOOOOOO.          .o.XXXXOOOOOO.          .o..#.OOOOOOO.       ###############         ....###.OOOOOO.               .o..X#.#XOOOOOO.         .o.X#.#XO.OOO..        .o..X#.#XOOOOOO.         .o.X#.#XO.OOO..         .o.X#.#XO.OOO..        .o..X#.#XOOOOOO.         .o.X#.#XO.OOO..",
"     .o.XXXXOOOOOO.          .o.XXXXOOOOOO.          .o.XXXXOOOOOO.          .o.XXXXOOOOOO.          .o.XXXXOOOOOO.          .o.XXXXOOOOOO.          .o.XXXXOOOOOO.          .o.XXXXOOOOOO.          .o.XXXXOOOOOO.          .o.XXXXOOOOOO.          .o.XXXXOOOOOO.        .o.XXXOOOOOOO.            .o.XXXXOOOO...          .o.XXXXOOOOOO.          .o..#.XOOOO...        ##############          .o..#.OOOOOOO.                .o.X#.#XO.OOO..        .o..X#.#XOOOOOO.         .o.X#.#XO.OOO..        .o..X#.#XOOOOOO.        .o..X#.#XOOOOOO.         .o.X#.#XO.OOO..        .o..X#.#XOOOOOO.",
"     ...XXXXXO.....          ...XXXXXO.....          .o.XXXXOOOOOO.          ...XXXXXO.....          ...XXXXXO.....          .o.XXXXOOOOOO.          ...XXXXXO.....          ...XXXXXO.....          .o.XXXXOOOOOO.          ...XXXXXO.....          ...XXXXXO.....        .o.XXXXOOOO...            ...XXXXXO..             ...XXXXXO.....          ...X.XXXO..           ##############          .o..#.XOOOO...               .o..X#.#XOOOOOO.        ....XXXXXOOOOOO.        .o..X#.#XOOOOOO.        ....XXXXXOOOOOO.        ....XXXXXOOOOOO.        .o..X#.#XOOOOOO.        ....XXXXXOOOOOO.",
"       ..XXOOOO.               ..XXOOOO.             ...XXXXXO.....            ..XXOOOO.               ..XXOOOO.             ...XXXXXO.....            ..XXOOOO.               ..XXOOOO.             ...XXXXXO.....            ..XXOOOO.               ..XXOOOO.           ....XXXXO..                 ..XXOOOO.               ..XXOOOO.               ..XXOOOO.           ###########             .....XXXO..                  ....XXXXXOOOOOO.          ..XXXXXOOOOOO.        ....XXXXXOOOOOO.          ..XXXXXOOOOOO.          ..XXXXXOOOOOO.        ....XXXXXOOOOOO.          ..XXXXXOOOOOO.",
"        .X+@@@@.                .XXOOOO.               ..XXOOOO.                .X+@@@@.                .X+@@@@.               ..XXOOOO.                .X+@@@@.                .X+@@@@.               ..XXOOOO.                .X+@@@@.                .X+@@@@.              .X+@@@@.                  .X+@@@@.                .X+@@@@.                .X+@@@@.              ########                .X+@@@@.                    ..XXXXXOOOOOO.      ....X..XXXX......           ..XXXXXOOOOOO.      ....X..XXXX......       ....X..XXXX......           ..XXXXXOOOOOO.      ....X..XXXX...... ",
"      ...X+@@@@.                .X+@@@@.                .X+@@@@.              ...X+@@@@.              ...X+@@@@.                .X+@@@@.              ...X+@@@@.              ...X+@@@@.                .X+@@@@.              ...X+@@@@.              ...X+@@@@.               .X+@@@@.                 .X+@@@@.              ...X+@@@@.                .X+@@@@.               ########                .X+@@@@.               ....X..XXXX......       .OOXXX+@@@@.            ....X..XXXX......       .OOXXX+@@@@.            .OOXXX+@@@@.            ....X..XXXX......       .OOXXX+@@@@.      ",
"      .OOX+@@@@.              ..OX+@@@@.              ...X+@@@@.              .OOX+@@@@.              .OOX+@@@@.                .X+@@@@.              .OOX+@@@@..             .OOX+@@@@.                .X+@@@@.              .OOX..@@@.              .OOX+@@@@.             ..OX+@@@@..              ..OX+@@@@..             .OOX+@@@@.              ..OX+@@@@..            ###########             ..OX+@@@@..              .OOXXX+@@@@.             .XXX.+++..             .OOXXX+@@@@.             .XXX++++O.              .XXX++++..             .OOXXX+@@@@.             .XXOO.++..       ",
"      ..XXXO++O.              .OXX+@@@@.              .OOX+@@@@.              ..XXXO++O.              ..XXX.++O.              ..OX+.@@@.              ..XXXO++OO.             ..XXXO++O.              ..OX+@@@@.              ..XXOO.+O.              ..XXXO++O.             .OXXXO++OO.              .OXXXO++OO.             ..XXXO++O.              .OXXXO++OO.            ###########             .OXXXO++OO.               .XXX++++O.               .XOO.OO.               .XXX.+++..               .XOOOOXX.               .XOOOOOO.              .XXX++++..               .XXX.OO.        ",
"       ..XOOOOO.              ..XXXO++O.              ..XXXO++O.               ..XOOOOO.               ..XOO.OO.              .OXXOO.+O.               ..XOOOOXX.              ..XOOOOOO.             .OXXO.++O..              ..XXX.OO.               ..XOOOOO.             ...XOO.OXX.              ...XOOOOXX.              ..XOOOOO.              ...XOOOOXX.            ###########             ...XOO.OXX.                .XOOOOO.                 .XO...                 .XOO.OO.                .XO.....               .XXO...XO.               .XO.OOO..                ....O.         ",
"        .XO..XO.                .XOOOOO.               ..XOOOOO.                .XO..XO.                 .XO...               ...XOO.XO.                .XO.....               .XXO...XO.             ...XX.OOOO.                ....O.                 .XO..XO.               .XO.....                 .XO.....                .XO..XO.                .XO.....               ########                .XO.....                 .XO..XO.                  ....                  .XOO.XO.                .X.                    ....   ...               .XX.OOOO.                  .X.          ",
"        .X. .X.                 .XO..XO.                .XO..XO.                .X. .X.                   ....                   .XO...                 .X.                    ....   ...               ......XO.                  .X.                  .X. .X.                .X.                      .X.                     .X. .X.                 .X.                    ###                     .X.                      .X. .X.                                          .XO...                 ..                                              ......XO.                  ..           ",
"        ..  ..                  ... ...                 ... ...                 ..  ..                                           ....                   ..                                                   ...                   ..                   ..  ..                 ..                       ..                      ..  ..                  ..                     ##                      ..                       ..  ..                                           ....                                                                        ...                                ",
"                                                                                                                                                                                                                                                                                                                                                                                                                                                                                                                                                                                                ",
"                                                                                                                                                                                                                                                                                                                                                                                                                                                                                                                                                                                                ",
"                                                                                                                                                                                                                                                                                                                                                                                                                                                                                                                                                                                                "
};
